<?xml version="1.0" encoding="utf-8"?>
<!-- Generator: Adobe Illustrator 17.1.0, SVG Export Plug-In . SVG Version: 6.00 Build 0)  -->
<!DOCTYPE svg PUBLIC "-//W3C//DTD SVG 1.1//EN" "http://www.w3.org/Graphics/SVG/1.1/DTD/svg11.dtd">
<svg version="1.1" id="Layer_1" xmlns="http://www.w3.org/2000/svg" xmlns:xlink="http://www.w3.org/1999/xlink" x="0px" y="0px"
	 viewBox="0 792 182 38" enable-background="new 0 792 182 38" xml:space="preserve">
<path fill="#FFFFFF" d="M23.3,792h-5.7c-2.9,0-5.3,2.4-5.3,5.3h5.3h5.7c4.5,0,8.2,3.7,8.2,8.2c0,4.5-3.7,8.2-8.2,8.2h-5.7
	c-2.9,0-5.3,2.4-5.3,5.3h5.3h5.7c7.5,0,13.6-6.1,13.6-13.6C36.9,798.1,30.8,792,23.3,792z M13.6,824.7c-4.5,0-8.2-3.7-8.2-8.3
	c0-4.5,3.7-8.2,8.2-8.2h5.7c2.9,0,5.3-2.4,5.3-5.3h-5.3h-5.7C6.1,802.9,0,809,0,816.4c0,7.5,6.1,13.6,13.6,13.6h5.7
	c2.9,0,5.3-2.4,5.3-5.3h-5.3L13.6,824.7L13.6,824.7z M77.8,811.2c0-4.3-2.4-8-7.1-8c-4.2,0-7.3,3.5-7.3,7.8v0c0,4.6,3.3,7.7,7.7,7.7
	c2.7,0,4.7-1.1,6.1-2.8l-2-1.8c-1.2,1.1-2.4,1.8-4,1.8c-2.2,0-3.9-1.4-4.3-3.8h11C77.8,811.9,77.8,811.5,77.8,811.2z M70.7,806
	c2.1,0,3.5,1.6,3.7,3.7h-7.6C67.2,807.5,68.6,806,70.7,806z M51.7,803.6h3.4v2.6c1.3-2,3.1-2.8,5.3-2.6v3.4c-1.8-0.2-3,0.3-3.9,1.2
	c-0.9,0.9-1.4,2-1.4,4.6v5.7h-3.4L51.7,803.6L51.7,803.6z M104.1,807c-0.5-1.5-2-3.6-4.9-3.7c-1.1,0-2.4,0.5-2.9,0.7
	c-0.7,0.5-1.5,1-2.2,2.1c-0.7-1.4-2.4-2.9-4.3-2.9c-1.2,0-2.7,0.5-4.2,2.1v-1.9H82v14.9h3.4v-6.3c0-1.6,0.2-3.2,0.8-4
	c0.7-1.1,1.9-1.3,2.4-1.3c0.6,0,1.3,0.2,1.8,0.6c0.7,0.6,1.2,1.6,1.2,3.6v7.3l0,0h3.4l0,0v-6.3c0-1.6,0.1-3.2,0.7-4
	c0.7-1.1,1.9-1.3,2.5-1.3c0.6,0,1.3,0.2,1.8,0.6c0.7,0.6,1.2,1.6,1.2,3.6v7.3h3.4v-6.6C104.7,810.5,104.6,808.4,104.1,807z
	 M108.5,811.1L108.5,811.1c0-4.3,3.4-7.8,7.9-7.8c4.6,0,7.9,3.5,7.9,7.8v0c0,4.2-3.4,7.8-8,7.8C111.8,818.8,108.5,815.3,108.5,811.1
	z M120.9,811.1L120.9,811.1c0-2.7-1.9-4.8-4.6-4.8c-2.7,0-4.5,2.1-4.5,4.8v0c0,2.6,1.9,4.8,4.6,4.8
	C119.2,815.8,120.9,813.6,120.9,811.1z M154.4,811.2c0-4.3-2.4-8-7.1-8c-4.2,0-7.3,3.5-7.3,7.8v0c0,4.6,3.3,7.7,7.7,7.7
	c2.7,0,4.7-1.1,6.1-2.8l-2-1.8c-1.2,1.1-2.4,1.8-4,1.8c-2.2,0-3.9-1.4-4.3-3.8h11C154.4,811.9,154.4,811.5,154.4,811.2z M147.3,806
	c2.1,0,3.5,1.6,3.7,3.7h-7.6C143.8,807.5,145.2,806,147.3,806z M158.4,797.8h3.4v20.6h-3.4V797.8z M166.8,822.1l1.1-2.6
	c0.6,0.3,1.3,0.5,2,0.5c1,0,1.6-0.4,2.1-1.7l-6.2-14.9h3.7l4.2,11.1l3.9-11.1h3.6l-5.9,15.3c-1.2,3.1-2.5,4.2-4.9,4.2
	C168.9,823,167.8,822.7,166.8,822.1z M136.7,814.9c-0.2,0.1-1.2,0.5-2,0.5c-0.9,0-2-0.3-2-2v-7h4v-2.9h-4v-4.1h-3.4v4.1h-1.9v2.9
	h1.9v7.9c0,3.3,2.4,4.3,4.3,4.4c1.1,0,2.2-0.2,3.2-0.6v-3.1L136.7,814.9z"/>
</svg>
